<svg xmlns="http://www.w3.org/2000/svg" version="1.1" xmlns:xlink="http://www.w3.org/1999/xlink" xmlns:svgjs="http://svgjs.dev/svgjs" width="484" height="518"><svg width="484" height="518" viewBox="0 0 484 518" fill="none" xmlns="http://www.w3.org/2000/svg">
<g filter="url(#filter0_d_1194_3282)">
<path fill-rule="evenodd" clip-rule="evenodd" d="M96.5073 369.41C127.122 451.329 222.023 494.221 308.474 465.211L197.608 168.555C111.157 197.565 65.8924 287.491 96.5073 369.41ZM148.491 351.689C168.92 406.355 232.249 434.977 289.939 415.618L215.956 217.656C158.267 237.015 128.061 297.024 148.491 351.689Z" fill="#3662E3"></path>
<path fill-rule="evenodd" clip-rule="evenodd" d="M96.5073 369.41C127.122 451.329 222.023 494.221 308.474 465.211L197.608 168.555C111.157 197.565 65.8924 287.491 96.5073 369.41ZM148.491 351.689C168.92 406.355 232.249 434.977 289.939 415.618L215.956 217.656C158.267 237.015 128.061 297.024 148.491 351.689Z" fill="url(#paint0_linear_1194_3282)" fill-opacity="0.2"></path>
</g>
<g filter="url(#filter1_d_1194_3282)">
<path fill-rule="evenodd" clip-rule="evenodd" d="M386.754 148.328C356.14 66.4091 261.239 23.5176 174.788 52.5276L285.654 349.183C372.105 320.173 417.369 230.248 386.754 148.328ZM334.771 166.049C314.341 111.383 251.013 82.7613 193.323 102.12L267.305 300.082C324.995 280.723 355.201 220.715 334.771 166.049Z" fill="#3662E3"></path>
<path fill-rule="evenodd" clip-rule="evenodd" d="M386.754 148.328C356.14 66.4091 261.239 23.5176 174.788 52.5276L285.654 349.183C372.105 320.173 417.369 230.248 386.754 148.328ZM334.771 166.049C314.341 111.383 251.013 82.7613 193.323 102.12L267.305 300.082C324.995 280.723 355.201 220.715 334.771 166.049Z" fill="url(#paint1_linear_1194_3282)" fill-opacity="0.2"></path>
</g>
<defs>
<filter id="SvgjsFilter1033" x="73.8608" y="143.541" width="275.904" height="360.093" filterUnits="userSpaceOnUse" color-interpolation-filters="sRGB">
<feFlood flood-opacity="0" result="BackgroundImageFix"></feFlood>
<feColorMatrix in="SourceAlpha" type="matrix" values="0 0 0 0 0 0 0 0 0 0 0 0 0 0 0 0 0 0 127 0" result="hardAlpha"></feColorMatrix>
<feOffset dx="14.1076" dy="2.1704"></feOffset>
<feGaussianBlur stdDeviation="13.5921"></feGaussianBlur>
<feComposite in2="hardAlpha" operator="out"></feComposite>
<feColorMatrix type="matrix" values="0 0 0 0 0 0 0 0 0 0 0 0 0 0 0 0 0 0 0.05 0"></feColorMatrix>
<feBlend mode="normal" in2="BackgroundImageFix" result="effect1_dropShadow_1194_3282"></feBlend>
<feBlend mode="normal" in="SourceGraphic" in2="effect1_dropShadow_1194_3282" result="shape"></feBlend>
</filter>
<filter id="SvgjsFilter1032" x="161.712" y="18.4451" width="275.904" height="360.093" filterUnits="userSpaceOnUse" color-interpolation-filters="sRGB">
<feFlood flood-opacity="0" result="BackgroundImageFix"></feFlood>
<feColorMatrix in="SourceAlpha" type="matrix" values="0 0 0 0 0 0 0 0 0 0 0 0 0 0 0 0 0 0 127 0" result="hardAlpha"></feColorMatrix>
<feOffset dx="14.1076" dy="2.1704"></feOffset>
<feGaussianBlur stdDeviation="13.5921"></feGaussianBlur>
<feComposite in2="hardAlpha" operator="out"></feComposite>
<feColorMatrix type="matrix" values="0 0 0 0 0 0 0 0 0 0 0 0 0 0 0 0 0 0 0.05 0"></feColorMatrix>
<feBlend mode="normal" in2="BackgroundImageFix" result="effect1_dropShadow_1194_3282"></feBlend>
<feBlend mode="normal" in="SourceGraphic" in2="effect1_dropShadow_1194_3282" result="shape"></feBlend>
</filter>
<linearGradient id="SvgjsLinearGradient1031" x1="220.285" y1="260.77" x2="112.619" y2="412.784" gradientUnits="userSpaceOnUse">
<stop stop-opacity="0"></stop>
<stop offset="1" stop-color="white"></stop>
</linearGradient>
<linearGradient id="SvgjsLinearGradient1030" x1="262.977" y1="256.968" x2="370.642" y2="104.954" gradientUnits="userSpaceOnUse">
<stop stop-opacity="0"></stop>
<stop offset="1" stop-color="white"></stop>
</linearGradient>
</defs>
</svg><style>@media (prefers-color-scheme: light) { :root { filter: none; } }
@media (prefers-color-scheme: dark) { :root { filter: none; } }
</style></svg>