<svg width="2251" height="518" viewBox="0 0 2251 518" fill="none" xmlns="http://www.w3.org/2000/svg">
<g filter="url(#filter0_d_1185_3325)">
<path fill-rule="evenodd" clip-rule="evenodd" d="M96.5073 369.41C127.122 451.329 222.023 494.221 308.474 465.211L197.608 168.555C111.157 197.565 65.8924 287.491 96.5073 369.41ZM148.491 351.689C168.92 406.355 232.249 434.977 289.939 415.618L215.956 217.656C158.267 237.015 128.061 297.024 148.491 351.689Z" fill="#3662E3"/>
<path fill-rule="evenodd" clip-rule="evenodd" d="M96.5073 369.41C127.122 451.329 222.023 494.221 308.474 465.211L197.608 168.555C111.157 197.565 65.8924 287.491 96.5073 369.41ZM148.491 351.689C168.92 406.355 232.249 434.977 289.939 415.618L215.956 217.656C158.267 237.015 128.061 297.024 148.491 351.689Z" fill="url(#paint0_linear_1185_3325)" fill-opacity="0.2"/>
</g>
<g filter="url(#filter1_d_1185_3325)">
<path fill-rule="evenodd" clip-rule="evenodd" d="M386.754 148.328C356.14 66.4091 261.239 23.5176 174.788 52.5276L285.654 349.183C372.105 320.173 417.369 230.248 386.754 148.328ZM334.771 166.049C314.341 111.383 251.013 82.7613 193.323 102.12L267.305 300.082C324.995 280.723 355.201 220.715 334.771 166.049Z" fill="#3662E3"/>
<path fill-rule="evenodd" clip-rule="evenodd" d="M386.754 148.328C356.14 66.4091 261.239 23.5176 174.788 52.5276L285.654 349.183C372.105 320.173 417.369 230.248 386.754 148.328ZM334.771 166.049C314.341 111.383 251.013 82.7613 193.323 102.12L267.305 300.082C324.995 280.723 355.201 220.715 334.771 166.049Z" fill="url(#paint1_linear_1185_3325)" fill-opacity="0.2"/>
</g>
<path d="M669.671 391.601C650.474 391.601 632.598 388.482 616.041 382.243C599.724 375.764 585.446 366.766 573.209 355.248C561.211 343.49 551.853 329.693 545.134 313.856C538.415 298.019 535.056 280.742 535.056 262.025C535.056 243.309 538.415 226.032 545.134 210.195C551.853 194.358 561.331 180.68 573.569 169.163C585.806 157.405 600.084 148.406 616.401 142.168C632.718 135.689 650.594 132.449 670.031 132.449C690.667 132.449 709.503 136.049 726.54 143.247C743.577 150.206 757.974 160.644 769.732 174.562L739.498 202.996C730.38 193.158 720.181 185.84 708.904 181.04C697.626 176.001 685.388 173.482 672.19 173.482C658.993 173.482 646.875 175.641 635.837 179.961C625.039 184.28 615.561 190.399 607.402 198.317C599.484 206.236 593.245 215.594 588.686 226.392C584.367 237.19 582.207 249.068 582.207 262.025C582.207 274.983 584.367 286.861 588.686 297.659C593.245 308.457 599.484 317.815 607.402 325.734C615.561 333.652 625.039 339.771 635.837 344.09C646.875 348.409 658.993 350.569 672.19 350.569C685.388 350.569 697.626 348.169 708.904 343.37C720.181 338.331 730.38 330.773 739.498 320.694L769.732 349.489C757.974 363.167 743.577 373.605 726.54 380.803C709.503 388.002 690.547 391.601 669.671 391.601ZM925.243 390.521C905.567 390.521 888.05 386.322 872.693 377.924C857.336 369.285 845.218 357.528 836.339 342.65C827.461 327.773 823.022 310.856 823.022 291.9C823.022 272.703 827.461 255.787 836.339 241.149C845.218 226.272 857.336 214.634 872.693 206.236C888.05 197.837 905.567 193.638 925.243 193.638C945.159 193.638 962.796 197.837 978.153 206.236C993.75 214.634 1005.87 226.152 1014.51 240.789C1023.38 255.427 1027.82 272.463 1027.82 291.9C1027.82 310.856 1023.38 327.773 1014.51 342.65C1005.87 357.528 993.75 369.285 978.153 377.924C962.796 386.322 945.159 390.521 925.243 390.521ZM925.243 352.009C936.281 352.009 946.119 349.609 954.757 344.81C963.396 340.011 970.115 333.052 974.914 323.934C979.953 314.816 982.472 304.138 982.472 291.9C982.472 279.422 979.953 268.744 974.914 259.866C970.115 250.747 963.396 243.789 954.757 238.99C946.119 234.191 936.401 231.791 925.603 231.791C914.565 231.791 904.727 234.191 896.088 238.99C887.69 243.789 880.971 250.747 875.932 259.866C870.893 268.744 868.374 279.422 868.374 291.9C868.374 304.138 870.893 314.816 875.932 323.934C880.971 333.052 887.69 340.011 896.088 344.81C904.727 349.609 914.445 352.009 925.243 352.009ZM1106.84 388.002V195.798H1151.83V388.002H1106.84ZM1129.52 164.124C1121.12 164.124 1114.16 161.484 1108.64 156.205C1103.36 150.926 1100.72 144.567 1100.72 137.129C1100.72 129.45 1103.36 123.091 1108.64 118.052C1114.16 112.773 1121.12 110.134 1129.52 110.134C1137.91 110.134 1144.75 112.653 1150.03 117.692C1155.55 122.491 1158.31 128.61 1158.31 136.049C1158.31 143.967 1155.67 150.686 1150.39 156.205C1145.11 161.484 1138.15 164.124 1129.52 164.124ZM1355.94 193.638C1371.29 193.638 1384.97 196.638 1396.97 202.636C1409.21 208.635 1418.8 217.874 1425.76 230.351C1432.72 242.589 1436.2 258.426 1436.2 277.862V388.002H1391.21V283.621C1391.21 266.585 1387.13 253.867 1378.97 245.468C1371.05 237.07 1359.9 232.871 1345.5 232.871C1334.94 232.871 1325.58 235.03 1317.42 239.35C1309.27 243.669 1302.91 250.148 1298.35 258.786C1294.03 267.184 1291.87 277.862 1291.87 290.82V388.002H1246.88V195.798H1289.71V247.628L1282.15 231.791C1288.87 219.553 1298.59 210.195 1311.3 203.716C1324.26 196.997 1339.14 193.638 1355.94 193.638ZM1619.96 390.521C1598.61 390.521 1579.89 386.322 1563.81 377.924C1547.98 369.285 1535.62 357.528 1526.74 342.65C1518.1 327.773 1513.78 310.856 1513.78 291.9C1513.78 272.703 1517.98 255.787 1526.38 241.149C1535.02 226.272 1546.78 214.634 1561.66 206.236C1576.77 197.837 1593.93 193.638 1613.13 193.638C1631.84 193.638 1648.52 197.717 1663.16 205.876C1677.79 214.034 1689.31 225.552 1697.71 240.429C1706.11 255.307 1710.31 272.823 1710.31 292.98C1710.31 294.899 1710.19 297.059 1709.95 299.458C1709.95 301.858 1709.83 304.138 1709.59 306.297H1549.42V276.423H1685.83L1668.2 285.781C1668.44 274.743 1666.16 265.025 1661.36 256.626C1656.56 248.228 1649.96 241.629 1641.56 236.83C1633.4 232.031 1623.92 229.631 1613.13 229.631C1602.09 229.631 1592.37 232.031 1583.97 236.83C1575.81 241.629 1569.33 248.348 1564.53 256.986C1559.98 265.385 1557.7 275.343 1557.7 286.861V294.059C1557.7 305.577 1560.34 315.775 1565.61 324.654C1570.89 333.532 1578.33 340.371 1587.93 345.17C1597.53 349.969 1608.57 352.369 1621.04 352.369C1631.84 352.369 1641.56 350.689 1650.2 347.33C1658.84 343.97 1666.52 338.691 1673.23 331.492L1697.35 359.207C1688.71 369.285 1677.79 377.084 1664.6 382.603C1651.64 387.882 1636.76 390.521 1619.96 390.521ZM1877.7 390.521C1857.55 390.521 1839.55 386.322 1823.71 377.924C1808.11 369.285 1795.88 357.528 1787 342.65C1778.12 327.773 1773.68 310.856 1773.68 291.9C1773.68 272.703 1778.12 255.787 1787 241.149C1795.88 226.272 1808.11 214.634 1823.71 206.236C1839.55 197.837 1857.55 193.638 1877.7 193.638C1896.42 193.638 1912.86 197.477 1927.01 205.156C1941.41 212.595 1952.33 223.632 1959.77 238.27L1925.21 258.426C1919.45 249.308 1912.38 242.589 1903.98 238.27C1895.82 233.951 1886.94 231.791 1877.34 231.791C1866.3 231.791 1856.35 234.191 1847.47 238.99C1838.59 243.789 1831.63 250.747 1826.59 259.866C1821.55 268.744 1819.03 279.422 1819.03 291.9C1819.03 304.377 1821.55 315.175 1826.59 324.294C1831.63 333.172 1838.59 340.011 1847.47 344.81C1856.35 349.609 1866.3 352.009 1877.34 352.009C1886.94 352.009 1895.82 349.849 1903.98 345.53C1912.38 341.211 1919.45 334.492 1925.21 325.374L1959.77 345.53C1952.33 359.927 1941.41 371.085 1927.01 379.004C1912.86 386.682 1896.42 390.521 1877.7 390.521ZM2109.46 390.521C2088.34 390.521 2072.03 385.122 2060.51 374.324C2048.99 363.287 2043.23 347.09 2043.23 325.734V153.326H2088.22V324.654C2088.22 333.772 2090.5 340.851 2095.06 345.89C2099.86 350.929 2106.46 353.448 2114.86 353.448C2124.94 353.448 2133.34 350.809 2140.05 345.53L2152.65 377.564C2147.37 381.883 2140.89 385.122 2133.22 387.282C2125.54 389.442 2117.62 390.521 2109.46 390.521ZM2011.56 233.231V197.237H2139.69V233.231H2011.56Z" fill="#3A3B4D"/>
<defs>
<filter id="filter0_d_1185_3325" x="73.8608" y="143.541" width="275.904" height="360.093" filterUnits="userSpaceOnUse" color-interpolation-filters="sRGB">
<feFlood flood-opacity="0" result="BackgroundImageFix"/>
<feColorMatrix in="SourceAlpha" type="matrix" values="0 0 0 0 0 0 0 0 0 0 0 0 0 0 0 0 0 0 127 0" result="hardAlpha"/>
<feOffset dx="14.1076" dy="2.1704"/>
<feGaussianBlur stdDeviation="13.5921"/>
<feComposite in2="hardAlpha" operator="out"/>
<feColorMatrix type="matrix" values="0 0 0 0 0 0 0 0 0 0 0 0 0 0 0 0 0 0 0.05 0"/>
<feBlend mode="normal" in2="BackgroundImageFix" result="effect1_dropShadow_1185_3325"/>
<feBlend mode="normal" in="SourceGraphic" in2="effect1_dropShadow_1185_3325" result="shape"/>
</filter>
<filter id="filter1_d_1185_3325" x="161.712" y="18.4451" width="275.904" height="360.093" filterUnits="userSpaceOnUse" color-interpolation-filters="sRGB">
<feFlood flood-opacity="0" result="BackgroundImageFix"/>
<feColorMatrix in="SourceAlpha" type="matrix" values="0 0 0 0 0 0 0 0 0 0 0 0 0 0 0 0 0 0 127 0" result="hardAlpha"/>
<feOffset dx="14.1076" dy="2.1704"/>
<feGaussianBlur stdDeviation="13.5921"/>
<feComposite in2="hardAlpha" operator="out"/>
<feColorMatrix type="matrix" values="0 0 0 0 0 0 0 0 0 0 0 0 0 0 0 0 0 0 0.05 0"/>
<feBlend mode="normal" in2="BackgroundImageFix" result="effect1_dropShadow_1185_3325"/>
<feBlend mode="normal" in="SourceGraphic" in2="effect1_dropShadow_1185_3325" result="shape"/>
</filter>
<linearGradient id="paint0_linear_1185_3325" x1="220.285" y1="260.77" x2="112.619" y2="412.784" gradientUnits="userSpaceOnUse">
<stop stop-opacity="0"/>
<stop offset="1" stop-color="white"/>
</linearGradient>
<linearGradient id="paint1_linear_1185_3325" x1="262.977" y1="256.968" x2="370.642" y2="104.954" gradientUnits="userSpaceOnUse">
<stop stop-opacity="0"/>
<stop offset="1" stop-color="white"/>
</linearGradient>
</defs>
</svg>
